# xmcd
#
# Track frame offsets:
#	150
#	14220
#	28924
#	46420
#	62725
#	86428
#	101393
#	116379
#	137020
#	154116
#	169563
#
# Disc length: 2525 seconds
#
# Revision: 2
# Processed by: cddbd v1.5.1PL0 Copyright (c) Steve Scherf et al.
# Submitted via: audiograbber 1.83.01
#
DISCID=8909db0b
DTITLE=Yannick Noah - Métisse(s)
DYEAR=1900
DGENRE=
TTITLE0=Métisse(s)
TTITLE1=Take your time - duo avec Jimmy Cliff
TTITLE2=Ose (live 2004)
TTITLE3=Mon Eldorado - "Du soleil"(live 2004)
TTITLE4=Yé Mama Yé (live 2004)
TTITLE5=J'aurais dû comprendre - dua avec Myriam Vialatte(live 2004)
TTITLE6=La bombe humaine (live 2004)
TTITLE7=La voix des sages - No more figthingh(live 2004)
TTITLE8=C'est pour toi
TTITLE9=En attendant
TTITLE10=Le jour s'est levé
EXTD=
EXTT0=
EXTT1=
EXTT2=
EXTT3=
EXTT4=
EXTT5=
EXTT6=
EXTT7=
EXTT8=
EXTT9=
EXTT10=
PLAYORDER=
